<?xml version="1.0" standalone="no"?>
<!DOCTYPE svg PUBLIC "-//W3C//DTD SVG 20010904//EN"
 "http://www.w3.org/TR/2001/REC-SVG-20010904/DTD/svg10.dtd">
<svg version="1.0" xmlns="http://www.w3.org/2000/svg"
 width="25.000000pt" height="28.000000pt" viewBox="0 0 25.000000 28.000000"
 preserveAspectRatio="xMidYMid meet">

<g transform="translate(0.000000,28.000000) scale(0.100000,-0.100000)"
fill="#000000" stroke="none">
<path d="M46 230 c-19 -17 -38 -44 -41 -60 -16 -71 45 -150 114 -150 82 0 145
82 121 156 -28 84 -128 112 -194 54z m123 -44 c-2 -2 -25 -7 -51 -11 -40 -6
-48 -5 -48 9 0 9 12 18 28 22 15 3 32 7 37 9 11 3 41 -22 34 -29z m18 -33 c2
-6 -19 -18 -51 -27 -30 -9 -62 -19 -71 -22 -10 -4 -15 0 -15 15 0 34 127 66
137 34z m3 -47 c0 -17 -64 -41 -85 -32 -23 9 -18 23 13 34 40 15 72 14 72 -2z"/>
</g>
</svg>
