<svg width="39" height="29" viewBox="0 0 39 29" fill="none" xmlns="http://www.w3.org/2000/svg">
<path d="M38.9992 6.47852H1.69482V13.2611H38.9992V6.47852Z" fill="#00377D"/>
<path d="M15.2158 21.6318C15.1605 22.3968 14.8773 22.999 14.3662 23.4385C13.8584 23.8779 13.1878 24.0977 12.3545 24.0977C11.443 24.0977 10.7253 23.7917 10.2012 23.1797C9.68034 22.5645 9.41992 21.7214 9.41992 20.6504V20.2158C9.41992 19.5322 9.54036 18.93 9.78125 18.4092C10.0221 17.8883 10.3656 17.4896 10.8115 17.2129C11.2607 16.9329 11.7816 16.793 12.374 16.793C13.1943 16.793 13.8551 17.0127 14.3564 17.4521C14.8577 17.8916 15.1475 18.5085 15.2256 19.3027H13.7607C13.7249 18.8438 13.5964 18.5117 13.375 18.3066C13.1569 18.0983 12.8232 17.9941 12.374 17.9941C11.8857 17.9941 11.5195 18.1699 11.2754 18.5215C11.0345 18.8698 10.9108 19.4118 10.9043 20.1475V20.6846C10.9043 21.4528 11.0199 22.0143 11.251 22.3691C11.4854 22.724 11.8532 22.9014 12.3545 22.9014C12.807 22.9014 13.1439 22.7988 13.3652 22.5938C13.5898 22.3854 13.7184 22.0648 13.751 21.6318H15.2158ZM18.8047 22.2373L20.416 16.8906H22.0469L19.5713 24H18.043L15.5771 16.8906H17.2031L18.8047 22.2373ZM25.3477 22.2373L26.959 16.8906H28.5898L26.1143 24H24.5859L22.1201 16.8906H23.7461L25.3477 22.2373Z" fill="#00C8FF"/>
<path d="M35.9694 28.8261H3.03063C1.35871 28.8217 0.00446442 27.4803 0 25.8244V3.00171C0.00447884 1.34261 1.36366 0 3.03875 0H35.9694C37.6413 0.00442182 38.9955 1.34575 39 3.00171V25.8244C38.9955 27.4803 37.6413 28.8217 35.9694 28.8261ZM3.03063 1.94749C2.44146 1.94749 1.96259 2.41818 1.95813 3.00171V25.8244C1.95813 26.1054 2.07137 26.3747 2.27274 26.5727C2.47411 26.7706 2.74693 26.8807 3.03063 26.8786H35.9694C36.2531 26.8807 36.5259 26.7706 36.7273 26.5727C36.9286 26.3747 37.0419 26.1054 37.0419 25.8244V3.00171C37.0374 2.41818 36.5585 1.94749 35.9694 1.94749H3.03063Z" fill="#00377D"/>
</svg>
