<svg id="Layer_1" data-name="Layer 1" xmlns="http://www.w3.org/2000/svg" viewBox="0 0 24 24"><defs><style>.cls-1{fill:#fff;}</style></defs><title>icon-system</title><g id="icon-help"><g id="Group"><g id="Oval"><path class="cls-1" d="M12,22A10,10,0,1,1,22,12,10,10,0,0,1,12,22ZM12,2.94A9.06,9.06,0,1,0,21.06,12,9.08,9.08,0,0,0,12,2.94Z"/></g><path class="cls-1" d="M11.34,14.35a4.2,4.2,0,0,1,.2-1.38,3.61,3.61,0,0,1,.74-1.11l1-1a2.2,2.2,0,0,0,.61-1.49,1.72,1.72,0,0,0-.4-1.21,1.52,1.52,0,0,0-1.17-.43,1.8,1.8,0,0,0-1.2.39,1.35,1.35,0,0,0-.45,1.06H9.28a2.47,2.47,0,0,1,.84-1.91,3.2,3.2,0,0,1,2.16-.72,3,3,0,0,1,2.16.74,2.69,2.69,0,0,1,.77,2A3.69,3.69,0,0,1,14,11.86l-.79.79a2.43,2.43,0,0,0-.54,1.7Zm-.06,2.32a.83.83,0,0,1,.2-.56.8.8,0,0,1,.6-.22.82.82,0,0,1,.6.22.83.83,0,0,1,.2.56.77.77,0,0,1-.2.54.78.78,0,0,1-.6.22.73.73,0,0,1-.8-.76Z"/></g></g></svg>