<svg width="433" height="320" viewBox="0 0 433 320" fill="none" xmlns="http://www.w3.org/2000/svg">
<rect x="7" y="5" width="420" height="311" rx="20" fill="white"/>
<path d="M245.375 160.188C245.375 206.68 207.68 244.375 161.188 244.375C114.695 244.375 77 206.68 77 160.188C77 113.695 114.695 76 161.188 76C207.68 76 245.375 113.695 245.375 160.188Z" fill="#D32F2F"/>
<path d="M357.625 160.188C357.625 206.68 319.93 244.375 273.438 244.375C226.945 244.375 189.25 206.68 189.25 160.188C189.25 113.695 226.945 76 273.438 76C319.93 76 357.625 113.695 357.625 160.188Z" fill="#FFA000" fill-opacity="0.8"/>
<rect x="6" y="6" width="421" height="308" rx="24" stroke="#DCDCDC" stroke-width="12"/>
</svg>
