<svg id="Layer_1" data-name="Layer 1" xmlns="http://www.w3.org/2000/svg" viewBox="0 0 24 24"><defs><style>.cls-1{fill:#fff;}</style></defs><title>icon-system</title><g id="icon-user"><g id="ic-usuario"><path id="Fill-1" class="cls-1" d="M19,19.78a.45.45,0,0,1-.35.16H5.34A.44.44,0,0,1,5,19.78a.47.47,0,0,1-.11-.38A7.18,7.18,0,0,1,12,13.32a7.18,7.18,0,0,1,7.11,6.11.46.46,0,0,1-.11.35M8.2,7.81A3.77,3.77,0,1,1,12,11.56,3.77,3.77,0,0,1,8.2,7.81m9.22,6.47a8.26,8.26,0,0,0-4-1.89,4.83,4.83,0,1,0-3,0,8.23,8.23,0,0,0-6.65,6.85A1.52,1.52,0,0,0,5.34,21H18.65a1.51,1.51,0,0,0,1.16-.53,1.48,1.48,0,0,0,.36-1.19,8.21,8.21,0,0,0-2.75-5"/></g></g></svg>