<svg width="324" height="324" viewBox="0 0 324 324" fill="none" xmlns="http://www.w3.org/2000/svg">
<path d="M151.722 208.772C150.054 208.765 148.456 208.129 147.272 207L105.695 167.909C104.071 166.382 103.419 164.138 103.984 162.023C104.549 159.908 106.245 158.243 108.434 157.656C110.623 157.068 112.972 157.647 114.596 159.175L151.722 194.174L214.468 131.445C216.046 129.863 218.383 129.21 220.599 129.732C222.814 130.255 224.571 131.873 225.208 133.977C225.844 136.082 225.264 138.353 223.686 139.935L156.426 207.123C155.247 208.311 153.621 208.993 151.912 209.016L151.722 208.772Z" fill="#00C8FF"/>
<path d="M164.826 311.999C162.043 311.991 159.285 311.495 156.689 310.532C128.85 299.777 104.198 282.596 84.9156 260.508C48.1707 218.607 34.0577 164.063 42.2585 98.4017C43.5598 88.1566 52.0466 80.1291 62.7288 79.0393C97.8173 74.8841 128.484 54.2958 144.61 24.0675C148.54 16.6621 156.46 12 165.112 12C173.764 12 181.684 16.6621 185.614 24.0675C201.758 54.2813 232.415 74.8635 267.495 79.0393C278.065 80.2398 286.398 88.2468 287.648 98.4017C296.103 164.063 281.736 218.607 244.991 260.508C225.666 282.566 201.028 299.759 173.218 310.593C170.533 311.548 167.689 312.024 164.826 311.999ZM164.826 24.3728C160.931 24.3641 157.363 26.4678 155.608 29.809C137.447 63.4843 103.128 86.351 63.9367 90.8888C59.1803 91.477 55.455 95.1067 54.9094 99.6843C46.8993 161.803 60.3131 213.232 94.6421 252.384C112.498 272.916 135.364 288.885 161.202 298.866C163.508 299.753 166.081 299.753 168.386 298.866C194.208 288.828 217.065 272.844 234.946 252.323C269.339 213.171 282.689 161.742 274.743 99.6233C274.191 95.0258 270.433 91.3899 265.652 90.8278C226.468 86.2694 192.158 63.4087 173.98 29.7479C172.229 26.4401 168.689 24.3613 164.826 24.3728Z" fill="#00377B"/>
</svg>
