<?xml version="1.0" encoding="UTF-8"?>
<svg width="24px" height="24px" viewBox="0 0 24 24" version="1.1" xmlns="http://www.w3.org/2000/svg" xmlns:xlink="http://www.w3.org/1999/xlink">
    <!-- Generator: Sketch 57.1 (83088) - https://sketch.com -->
    <title>Artboard</title>
    <desc>Created with Sketch.</desc>
    <g id="Artboard" stroke="none" stroke-width="1" fill="none" fill-rule="evenodd">
        <g id="ic-cart" transform="translate(2.000000, 2.000000)" fill="#FFFFFF" fill-rule="nonzero">
            <path d="M7.66,14.66 C6.58008581,14.66 5.60650692,15.3105246 5.19324165,16.3082352 C4.77997638,17.3059459 5.00841024,18.4543605 5.77202489,19.2179751 C6.53563954,19.9815898 7.68405414,20.2100236 8.68176476,19.7967584 C9.67947538,19.3834931 10.33,18.4099142 10.33,17.33 C10.33,15.8553997 9.13460028,14.66 7.66,14.66 Z M7.66,18.94 C6.77082155,18.94 6.05,18.2191784 6.05,17.33 C6.05,16.4408216 6.77082155,15.72 7.66,15.72 C8.54917845,15.72 9.27,16.4408216 9.27,17.33 C9.26454195,18.2169078 8.54690781,18.934542 7.66,18.94 L7.66,18.94 Z" id="Shape"></path>
            <path d="M15.81,14.66 C14.7300858,14.66 13.7565069,15.3105246 13.3432416,16.3082352 C12.9299764,17.3059459 13.1584102,18.4543605 13.9220249,19.2179751 C14.6856395,19.9815898 15.8340541,20.2100236 16.8317648,19.7967584 C17.8294754,19.3834931 18.48,18.4099142 18.48,17.33 C18.4745164,15.8576771 17.2823229,14.6654836 15.81,14.66 Z M15.81,18.94 C14.9208216,18.94 14.2,18.2191784 14.2,17.33 C14.2,16.4408216 14.9208216,15.72 15.81,15.72 C16.6991784,15.72 17.42,16.4408216 17.42,17.33 C17.42,18.2191784 16.6991784,18.94 15.81,18.94 Z" id="Shape"></path>
            <path d="M18.32,2.36 C18.1275637,2.30821195 17.9292786,2.28132583 17.73,2.28 L7.66,2.28 C7.36728908,2.28 7.13,2.51728908 7.13,2.81 C7.13,3.10271092 7.36728908,3.34 7.66,3.34 L17.73,3.34 C17.8294311,3.32491466 17.9305689,3.32491466 18.03,3.34 C18.311376,3.41918279 18.5496652,3.60710167 18.692258,3.8622676 C18.8348507,4.11743354 18.8700196,4.41886088 18.79,4.7 L17.63,8.82 L6.26,8.82 L3.79,0 L0.64,0 C0.347289087,0 0.110000011,0.237289087 0.110000011,0.53 C0.110000011,0.822710913 0.347289087,1.05999999 0.64,1.06 L3,1.06 L5.91,11.54 C6.16824649,12.4793493 7.02582876,13.1276651 8,13.1200672 L15.9,13.1200672 C16.8755847,13.1252773 17.7347593,12.4788507 18,11.54 L19.81,5 C20.1179437,3.86072147 19.4544778,2.68518455 18.32,2.36 Z M15.9,12.06 L8,12.06 C7.50712025,12.0584515 7.07660951,11.7263432 6.95,11.25 L6.57,9.92 L17.33,9.92 L17,11.26 C16.8618942,11.7485675 16.4073509,12.0791444 15.9,12.06 L15.9,12.06 Z" id="Shape"></path>
        </g>
    </g>
</svg>